<?xml version="1.0" encoding="iso-8859-1"?>

<!DOCTYPE svg PUBLIC "-//W3C//DTD SVG 1.1//EN" "http://www.w3.org/Graphics/SVG/1.1/DTD/svg11.dtd">
<!-- Uploaded to: SVG Repo, www.svgrepo.com, Generator: SVG Repo Mixer Tools -->
<svg version="1.1" id="_x35_" xmlns="http://www.w3.org/2000/svg" xmlns:xlink="http://www.w3.org/1999/xlink" 
	 viewBox="0 0 512 512"  xml:space="preserve">
<g>
	<g>
		<polygon style="fill:#D6D9C4;" points="428.043,94.795 428.043,512 30.014,512 30.014,94.795 176.586,49.524 281.388,49.524 
			399.112,85.874 		"/>
		<polygon style="fill:#D6D9C4;" points="458.058,70.701 456.807,84.207 453.639,118.307 450.554,128.395 428.043,121.475 
			378.769,106.217 251.123,66.781 229.029,59.945 30.014,121.475 7.504,128.395 4.419,118.307 0,70.701 30.014,61.446 
			176.586,16.174 229.029,0 281.388,16.174 296.895,21.01 424.625,60.361 428.043,61.446 436.714,64.114 		"/>
		<polygon style="opacity:0.1;fill:#040000;" points="453.633,118.326 450.517,128.384 428.056,121.442 428.056,137.057 
			229.019,75.576 30.001,137.057 30.001,121.442 7.54,128.384 4.424,118.326 30.001,110.423 176.615,65.115 227.153,49.5 
			229.019,48.923 230.884,49.5 281.422,65.115 428.056,110.423 		"/>
		<circle style="fill:#B1A192;" cx="229.029" cy="148.711" r="42.307"/>
		<rect x="30.001" y="205.768" style="fill:#B1A192;" width="398.055" height="11.538"/>
		<rect x="30.014" y="358.342" style="fill:#B1A192;" width="398.028" height="11.505"/>
		<g>
			<g>
				<rect x="77.074" y="248.869" style="fill:#FFFFFF;" width="25.907" height="25.259"/>
				<rect x="108.924" y="248.869" style="fill:#FFFFFF;" width="25.907" height="25.259"/>
				<rect x="77.074" y="279.138" style="fill:#FFFFFF;" width="25.907" height="56.028"/>
				<rect x="108.924" y="279.138" style="fill:#FFFFFF;" width="25.907" height="56.028"/>
			</g>
			<g>
				<rect x="159.124" y="248.869" style="fill:#FFFFFF;" width="25.907" height="25.259"/>
				<rect x="190.975" y="248.869" style="fill:#FFFFFF;" width="25.907" height="25.259"/>
				<rect x="159.124" y="279.138" style="fill:#FFFFFF;" width="25.907" height="56.028"/>
				<rect x="190.975" y="279.138" style="fill:#FFFFFF;" width="25.907" height="56.028"/>
			</g>
			<g>
				<rect x="241.175" y="248.869" style="fill:#FFFFFF;" width="25.907" height="25.259"/>
				<rect x="273.026" y="248.869" style="fill:#FFFFFF;" width="25.907" height="25.259"/>
				<rect x="241.175" y="279.138" style="fill:#FFFFFF;" width="25.907" height="56.028"/>
				<rect x="273.026" y="279.138" style="fill:#FFFFFF;" width="25.907" height="56.028"/>
			</g>
			<g>
				<rect x="323.226" y="248.869" style="fill:#FFFFFF;" width="25.907" height="25.259"/>
				<rect x="355.077" y="248.869" style="fill:#FFFFFF;" width="25.907" height="25.259"/>
				<rect x="323.226" y="279.138" style="fill:#FFFFFF;" width="25.907" height="56.028"/>
				<rect x="355.077" y="279.138" style="fill:#FFFFFF;" width="25.907" height="56.028"/>
			</g>
		</g>
		<g>
			<path style="fill:#B1A192;" d="M141.231,427.401v84.557H75.405v-84.557c0-12.73,10.404-23.154,23.154-23.154h19.519
				C130.808,404.248,141.231,414.671,141.231,427.401z"/>
			<path style="fill:#B1A192;" d="M261.942,427.401v84.557h-65.826v-84.557c0-12.73,10.423-23.154,23.154-23.154h19.519
				C251.52,404.248,261.942,414.671,261.942,427.401z"/>
			<path style="fill:#B1A192;" d="M382.653,427.401v84.557h-65.827v-84.557c0-12.73,10.423-23.154,23.154-23.154h19.519
				C372.249,404.248,382.653,414.671,382.653,427.401z"/>
		</g>
	</g>
	<polygon style="opacity:0.08;fill:#040000;" points="458.058,70.701 456.807,84.207 453.639,118.307 450.554,128.395 
		428.043,121.475 428.043,511.917 30.014,511.917 30.014,454.971 210.853,274.133 216.856,268.131 267.714,217.271 424.625,60.361 
		428.043,61.446 436.714,64.114 	"/>
</g>
</svg>