<?xml version="1.0" encoding="iso-8859-1"?>
<!-- Uploaded to: SVG Repo, www.svgrepo.com, Generator: SVG Repo Mixer Tools -->
<svg height="800px" width="800px" version="1.1" id="Layer_1" xmlns="http://www.w3.org/2000/svg" xmlns:xlink="http://www.w3.org/1999/xlink" 
	 viewBox="0 0 512.001 512.001" xml:space="preserve">
<path style="fill:#727178;" d="M495.232,281.153h-138.62c-5.692,0-10.996-2.888-14.086-7.669
	c-3.089-4.781-3.542-10.803-1.201-15.993l69.31-153.719c2.71-6.011,8.692-9.876,15.286-9.876s12.576,3.865,15.286,9.876
	l69.31,153.719c2.341,5.189,1.887,11.21-1.201,15.993C506.228,278.266,500.924,281.153,495.232,281.153z M382.567,247.616h86.709
	l-43.355-96.154L382.567,247.616z"/>
<path style="fill:#57565C;" d="M510.518,257.493l-69.31-153.718c-2.71-6.011-8.692-9.876-15.286-9.876v57.564l43.355,96.154h-43.355
	v33.537h69.31c5.692,0,10.996-2.888,14.086-7.669C512.405,268.703,512.859,262.681,510.518,257.493z"/>
<path style="fill:#FF9711;" d="M495.232,247.616h-138.62c-9.261,0-16.769,7.508-16.769,16.769c0,47.464,38.615,86.079,86.079,86.079
	s86.079-38.615,86.079-86.079C512.001,255.124,504.493,247.616,495.232,247.616z"/>
<path style="fill:#CC7300;" d="M495.232,247.616h-69.31v102.847c47.464,0,86.079-38.615,86.079-86.079
	C512.001,255.124,504.493,247.616,495.232,247.616z"/>
<path style="fill:#727178;" d="M155.389,281.153H16.769c-5.692,0-10.996-2.888-14.086-7.669c-3.089-4.781-3.542-10.803-1.201-15.993
	l69.31-153.719c2.71-6.011,8.692-9.876,15.286-9.876c6.595,0,12.576,3.865,15.286,9.876l69.31,153.719
	c2.341,5.189,1.887,11.21-1.201,15.993C166.385,278.266,161.082,281.153,155.389,281.153z M42.725,247.616h86.709l-43.355-96.154
	L42.725,247.616z"/>
<path style="fill:#57565C;" d="M170.675,257.493l-69.31-153.718c-2.71-6.012-8.692-9.877-15.286-9.877v57.564l43.355,96.154H86.079
	v33.537h69.31c5.692,0,10.996-2.888,14.086-7.669C172.562,268.703,173.016,262.681,170.675,257.493z"/>
<path style="fill:#C6C5CA;" d="M86.065,127.438c-7.579,0-14.453-5.175-16.293-12.87c-2.155-9.007,3.398-18.055,12.406-20.211
	L251.54,53.833c2.553-0.611,5.22-0.615,7.779-0.006L429.8,94.352c9.01,2.142,14.577,11.181,12.437,20.192
	c-2.142,9.01-11.184,14.58-20.193,12.437l-166.59-39.598L89.981,126.974C88.669,127.287,87.357,127.438,86.065,127.438z"/>
<path style="fill:#727178;" d="M255.442,500.821c-18.521,0-33.537-15.016-33.537-33.537V41.363
	c0-18.521,15.016-33.537,33.537-33.537s33.537,15.016,33.537,33.537v425.921C288.979,485.806,273.963,500.821,255.442,500.821z"/>
<path style="fill:#4B4A4F;" d="M86.079,68.705c-23.137,0-41.961,18.823-41.961,41.961s18.823,41.962,41.961,41.962
	s41.961-18.823,41.961-41.961S109.218,68.705,86.079,68.705z"/>
<path style="fill:#57565C;" d="M86.079,92.036c-10.272,0-18.63,8.357-18.63,18.63s8.357,18.63,18.63,18.63s18.63-8.357,18.63-18.63
	S96.352,92.036,86.079,92.036z"/>
<path style="fill:#4B4A4F;" d="M425.922,68.705c-23.137,0-41.961,18.823-41.961,41.961s18.823,41.961,41.961,41.961
	c23.137,0,41.961-18.823,41.961-41.961S449.06,68.705,425.922,68.705z"/>
<path style="fill:#57565C;" d="M425.922,92.036c-10.272,0-18.63,8.357-18.63,18.63s8.357,18.63,18.63,18.63
	c10.272,0,18.63-8.357,18.63-18.63S436.194,92.036,425.922,92.036z"/>
<path style="fill:#FF9711;" d="M155.389,247.616H16.769c-9.261,0-16.769,7.508-16.769,16.769c0,47.464,38.615,86.079,86.079,86.079
	s86.079-38.615,86.079-86.079C172.158,255.124,164.65,247.616,155.389,247.616z"/>
<path style="fill:#CC7300;" d="M155.389,247.616h-69.31v102.847c47.464,0,86.079-38.615,86.079-86.079
	C172.158,255.124,164.65,247.616,155.389,247.616z"/>
<path style="fill:#57565C;" d="M256.001,7.84v492.968c18.263-0.3,32.978-15.189,32.978-33.523V41.363
	C288.979,23.028,274.264,8.14,256.001,7.84z"/>
<path style="fill:#4B4A4F;" d="M356.612,504.175H154.271c-9.261,0-16.769-7.508-16.769-16.769s7.508-16.769,16.769-16.769h202.341
	c9.261,0,16.769,7.508,16.769,16.769S365.873,504.175,356.612,504.175z"/>
<path style="fill:#57565C;" d="M332.577,471.756H178.306c-9.261,0-16.769-7.508-16.769-16.769s7.508-16.769,16.769-16.769h154.271
	c9.261,0,16.769,7.508,16.769,16.769S341.838,471.756,332.577,471.756z"/>
</svg>